<?xml version="1.0" standalone="no"?>
<!DOCTYPE svg PUBLIC "-//W3C//DTD SVG 20010904//EN"
 "http://www.w3.org/TR/2001/REC-SVG-20010904/DTD/svg10.dtd">
<svg version="1.0" xmlns="http://www.w3.org/2000/svg"
 width="968.000000pt" height="967.000000pt" viewBox="0 0 968.000000 967.000000"
 preserveAspectRatio="xMidYMid meet">

<g transform="translate(0.000000,967.000000) scale(0.100000,-0.100000)"
fill="#000000" stroke="none">
<path d="M1445 8820 c-181 -81 -334 -154 -339 -163 -10 -16 72 -7788 83 -7798
5 -5 2359 -104 3071 -129 861 -31 1670 -39 1895 -19 250 21 470 64 665 129
105 35 640 270 680 299 14 9 49 25 78 35 215 69 465 230 670 430 333 325 556
774 617 1239 19 151 19 413 0 561 -97 742 -613 1341 -1412 1642 -57 22 -103
41 -103 44 1 3 35 21 77 40 187 85 375 222 531 385 128 134 218 261 297 420
73 146 113 260 147 415 20 93 22 133 23 350 0 277 -14 377 -81 579 -143 428
-499 859 -924 1117 -446 271 -903 366 -2055 429 -209 11 -3490 145 -3540 144
-42 -1 -103 -25 -380 -149z m2100 30 c930 -38 1740 -72 1800 -75 1010 -55
1452 -131 1847 -318 520 -246 935 -697 1102 -1198 65 -198 81 -304 81 -559 -1
-196 -4 -238 -23 -330 -34 -154 -74 -269 -147 -415 -86 -172 -175 -295 -315
-435 -161 -161 -315 -266 -535 -365 -55 -24 -104 -51 -109 -59 -11 -17 8 -46
31 -46 26 0 258 -92 388 -154 431 -206 742 -493 948 -876 517 -958 74 -2282
-916 -2740 -101 -46 -293 -110 -437 -145 -453 -109 -909 -107 -3889 15 -794
33 -1447 62 -1450 65 -3 4 -22 1519 -42 3368 -20 1849 -39 3581 -43 3850 -5
394 -4 487 6 487 7 0 774 -31 1703 -70z m-1774 -22 c0 -40 19 -1769 43 -3843
23 -2073 41 -3774 39 -3780 -4 -10 -613 -289 -618 -283 -5 5 -87 7565 -83
7641 l3 68 300 134 c165 74 303 134 308 135 4 0 7 -33 8 -72z m1569 -7738
c1680 -69 1924 -77 2590 -90 557 -10 905 -1 1105 29 72 11 131 18 132 17 6 -5
-269 -122 -362 -153 -195 -67 -416 -111 -670 -132 -226 -20 -974 -12 -1875 19
-523 19 -2912 119 -2916 123 -4 4 527 246 541 247 6 0 661 -27 1455 -60z"/>
<path d="M3490 7595 c-19 -23 2 -1802 22 -1820 9 -9 207 -20 698 -39 1531 -61
1694 -61 1929 0 319 83 561 305 631 578 59 232 22 527 -92 721 -50 85 -209
246 -290 293 -88 52 -208 100 -312 127 -201 51 -528 73 -1886 130 -706 30
-684 29 -700 10z m678 -70 c1370 -57 1675 -78 1876 -129 371 -95 579 -284 663
-605 35 -131 36 -326 4 -446 -62 -233 -202 -393 -434 -493 -80 -35 -282 -90
-293 -80 -3 3 8 28 25 54 78 128 105 258 98 468 -8 254 -68 408 -221 573 -150
161 -356 264 -616 307 -166 27 -680 60 -1350 86 -151 6 -299 13 -327 16 l-53
5 0 135 c0 115 2 134 16 134 8 0 284 -11 612 -25z m-253 -315 c678 -27 1171
-59 1335 -86 117 -20 262 -65 355 -111 227 -114 363 -281 432 -534 25 -91 25
-357 0 -449 -24 -84 -80 -198 -122 -247 l-33 -38 -169 -3 c-194 -4 -537 6
-1489 45 l-672 27 -6 250 c-3 138 -8 457 -10 708 l-5 457 62 -4 c34 -3 179
-10 322 -15z"/>
<path d="M3521 4506 c-9 -10 -9 -195 -1 -737 5 -398 10 -864 10 -1035 0 -270
2 -313 16 -325 11 -9 211 -21 797 -45 1732 -72 1961 -69 2224 36 216 86 385
236 479 425 73 148 87 218 88 440 1 152 -3 206 -18 270 -47 203 -134 353 -294
506 -248 237 -520 325 -1192 383 -277 24 -467 34 -1225 66 -821 35 -868 35
-884 16z m856 -76 c1130 -47 1457 -73 1798 -141 324 -65 588 -221 734 -432
238 -346 224 -894 -29 -1170 -125 -136 -311 -238 -507 -277 -32 -6 -66 -14
-75 -16 -11 -3 -3 16 27 61 159 243 178 674 41 969 -47 102 -98 177 -181 265
-177 187 -406 305 -701 360 -200 37 -478 68 -824 91 -110 7 -1037 50 -1086 50
-2 0 -4 61 -4 135 l0 135 44 0 c25 0 368 -13 763 -30z m-242 -315 c647 -27
1024 -60 1329 -116 348 -64 624 -228 780 -463 216 -326 217 -811 2 -1103 l-44
-60 -168 -7 c-93 -4 -329 -2 -524 4 -481 15 -1918 75 -1924 81 -2 2 -7 383
-11 847 l-7 843 103 -6 c57 -3 266 -12 464 -20z"/>
</g>
</svg>
